<svg width="46" height="45" viewBox="0 0 46 45" fill="none" xmlns="http://www.w3.org/2000/svg">
<path fill-rule="evenodd" clip-rule="evenodd" d="M0.5 7C0.5 3.13401 3.63401 0 7.5 0H38.5C42.366 0 45.5 3.13401 45.5 7V38C45.5 41.866 42.366 45 38.5 45H7.5C3.63401 45 0.5 41.866 0.5 38V7ZM23.8132 12.1868C24.2623 12.6359 24.2623 13.3641 23.8132 13.8132L16.7763 20.85H33C33.6351 20.85 34.15 21.3649 34.15 22C34.15 22.6351 33.6351 23.15 33 23.15H16.7763L23.8132 30.1868C24.2623 30.6359 24.2623 31.3641 23.8132 31.8132C23.3641 32.2623 22.6359 32.2623 22.1868 31.8132L14.601 24.2274C13.3709 22.9972 13.3709 21.0028 14.601 19.7726L22.1868 12.1868C22.6359 11.7377 23.3641 11.7377 23.8132 12.1868Z" fill="#131313"/>
</svg>
