<svg width="47" height="47" viewBox="0 0 47 47" fill="none" xmlns="http://www.w3.org/2000/svg">
<path d="M23.9833 26.54C23.9401 26.54 23.8752 26.54 23.832 26.54C23.7672 26.54 23.6807 26.54 23.6159 26.54C18.7098 26.3887 15.0357 22.5633 15.0357 17.8518C15.0357 13.0538 18.9475 9.142 23.7456 9.142C28.5435 9.142 32.4553 13.0538 32.4553 17.8518C32.4337 22.5849 28.738 26.3887 24.0481 26.54C24.0049 26.54 24.0049 26.54 23.9833 26.54ZM23.7239 12.3622C20.6982 12.3622 18.2559 14.8261 18.2559 17.8302C18.2559 20.7911 20.5685 23.1901 23.5078 23.2981C23.5727 23.2765 23.7888 23.2765 24.0049 23.2981C26.901 23.1469 29.1703 20.7695 29.1919 17.8302C29.1919 14.8261 26.7497 12.3622 23.7239 12.3622Z" fill="#292D32"/>
<path d="M23.7246 46.4668C17.9109 46.4668 12.3565 44.3056 8.05565 40.3721C7.66663 40.0263 7.49373 39.5076 7.53696 39.0105C7.81792 36.4387 9.41723 34.0397 12.0756 32.2675C18.516 27.9882 28.9548 27.9882 35.3737 32.2675C38.032 34.0613 39.6313 36.4387 39.9123 39.0105C39.9771 39.5292 39.7826 40.0263 39.3936 40.3721C35.0927 44.3056 29.5383 46.4668 23.7246 46.4668ZM10.9301 38.5783C14.5178 41.5824 19.0347 43.225 23.7246 43.225C28.4145 43.225 32.9315 41.5824 36.5191 38.5783C36.1301 37.2599 35.0927 35.9848 33.5582 34.9474C28.2416 31.403 19.2293 31.403 13.8694 34.9474C12.3349 35.9848 11.3191 37.2599 10.9301 38.5783Z" fill="#292D32"/>
<path d="M23.7229 46.4666C10.9067 46.4666 0.489563 36.0494 0.489563 23.2333C0.489563 10.4172 10.9067 0 23.7229 0C36.539 0 46.9562 10.4172 46.9562 23.2333C46.9562 36.0494 36.539 46.4666 23.7229 46.4666ZM23.7229 3.24186C12.7006 3.24186 3.73142 12.211 3.73142 23.2333C3.73142 34.2556 12.7006 43.2247 23.7229 43.2247C34.7452 43.2247 43.7143 34.2556 43.7143 23.2333C43.7143 12.211 34.7452 3.24186 23.7229 3.24186Z" fill="#292D32"/>
</svg>
