<svg width="54" height="51" viewBox="0 0 54 51" fill="none" xmlns="http://www.w3.org/2000/svg">
<path d="M48.2548 17.7866C43.4293 17.7866 41.4565 14.3741 43.8559 10.1885C45.2422 7.76241 44.4158 4.66984 41.9897 3.28351L37.3775 0.644159C35.2713 -0.608867 32.552 0.137617 31.299 2.24377L31.0057 2.75031C28.6063 6.93595 24.6606 6.93595 22.2345 2.75031L21.9413 2.24377C20.7416 0.137617 18.0222 -0.608867 15.9161 0.644159L11.3039 3.28351C8.87782 4.66984 8.05136 7.78907 9.43768 10.2151C11.8638 14.3741 9.89091 17.7866 5.06542 17.7866C2.29277 17.7866 0 20.0527 0 22.852V27.5442C0 30.3169 2.26611 32.6096 5.06542 32.6096C9.89091 32.6096 11.8638 36.0221 9.43768 40.2078C8.05136 42.6339 8.87782 45.7264 11.3039 47.1128L15.9161 49.7521C18.0222 51.0051 20.7416 50.2587 21.9946 48.1525L22.2879 47.646C24.6873 43.4603 28.633 43.4603 31.059 47.646L31.3523 48.1525C32.6053 50.2587 35.3247 51.0051 37.4308 49.7521L42.043 47.1128C44.4691 45.7264 45.2955 42.6072 43.9092 40.2078C41.4831 36.0221 43.456 32.6096 48.2815 32.6096C51.0541 32.6096 53.3469 30.3435 53.3469 27.5442V22.852C53.3202 20.0794 51.0541 17.7866 48.2548 17.7866ZM26.6601 33.8627C21.888 33.8627 17.9956 29.9703 17.9956 25.1981C17.9956 20.426 21.888 16.5336 26.6601 16.5336C31.4323 16.5336 35.3247 20.426 35.3247 25.1981C35.3247 29.9703 31.4323 33.8627 26.6601 33.8627Z" fill="#292D32"/>
</svg>
